# xmcd CD database file
#
# Track frame offsets:
#	150
#	11877
#	29702
#	40660
#	54360
#	61650
#	78705
#	92177
#	103497
#	118002
#	130395
#	143392
#
# Disc length: 2096 seconds
#
# Revision: 0
# Processed by: cddbd v1.5.2PL0 Copyright (c) Steve Scherf et al.
# Submitted via: CDex 1.70beta2
#
DISCID=a5082e0c
DTITLE=Holger Stern - Die schönsten deutschen Heimatlieder
DYEAR=1900
DGENRE=Country
TTITLE0=Am Brunnen vor dem Tore
TTITLE1=Hoch auf dem gelben Wagen
TTITLE2=Nun ade du mein lieb Heimatland
TTITLE3=Muß i denn zum Städtele hinaus
TTITLE4=Wem Gott will rechte Gunst erweisen
TTITLE5=Ich hab mein Herz in Heidelberg verloren
TTITLE6=Mein Vater war ein Wandersmann
TTITLE7=Horch was kommt von draussen rein
TTITLE8=Lustig ist das Zigeunerleben
TTITLE9=Sah ein Knab ein Röslein steh'n
TTITLE10=Ein Jäger aus Kurpfalz
TTITLE11=Ännchen von Tharau
EXTD=YEAR: 1900
EXTT0=
EXTT1=
EXTT2=
EXTT3=
EXTT4=
EXTT5=
EXTT6=
EXTT7=
EXTT8=
EXTT9=
EXTT10=
EXTT11=
PLAYORDER=
